<?xml version="1.0" encoding="UTF-8" standalone="no"?>
<!DOCTYPE svg PUBLIC "-//W3C//DTD SVG 1.1//EN" "http://www.w3.org/Graphics/SVG/1.1/DTD/svg11.dtd">
<svg width="100%" height="100%" viewBox="0 0 22 22" version="1.1" xmlns="http://www.w3.org/2000/svg" xmlns:xlink="http://www.w3.org/1999/xlink" xml:space="preserve" xmlns:serif="http://www.serif.com/" style="fill-rule:evenodd;clip-rule:evenodd;stroke-linejoin:round;stroke-miterlimit:2;">
    <path d="M11,0.624C16.727,0.624 21.376,5.273 21.376,11C21.376,16.727 16.727,21.376 11,21.376C5.273,21.376 0.624,16.727 0.624,11C0.624,5.273 5.273,0.624 11,0.624ZM10.571,16.405L10.571,11.704L9.143,11.704L9.143,15.802L8.621,16.405L6.95,16.405L6.429,15.84L6.429,11.704L5,11.704L5,16.405L5.946,17.522L9.652,17.522L10.571,16.405ZM11.428,17.514L12.857,17.514L12.857,15.232L15.329,15.232L15.614,15.488L15.614,17.514L17,17.514L17,15.232L16.408,14.701L17,14.071L17,12.914L16.983,12.898L16.991,12.898L15.913,11.704L11.428,11.704L11.428,17.514ZM12.857,12.914L12.857,14.071L15.323,14.071L15.608,13.763L15.608,13.641L15.614,13.641L15.614,13.168L15.329,12.914L12.857,12.914ZM5.143,10.81L9.486,10.81L10.571,9.621L10.568,9.621L10.571,9.618L10.571,8.457L10.013,7.826L10.571,7.296L10.571,6.125L10.56,6.112L10.571,6.112L10.301,5.819L10.236,5.745L10.233,5.745L9.545,5L5.143,5L5.143,10.81ZM13.366,9.611L12.857,9.136L12.857,5L11.428,5L11.428,9.618L11.559,9.737L12.527,10.809L16.428,10.809L16.428,9.611L13.366,9.611ZM8.944,8.457L6.499,8.457L6.499,9.618L8.944,9.618L9.213,9.356L9.213,8.765L8.944,8.457ZM9.213,7.039L9.213,6.423L8.944,6.125L6.499,6.125L6.499,7.296L8.944,7.296L9.213,7.039Z" fill="currentColor" />
</svg>
