<?xml version="1.0" encoding="UTF-8" standalone="no"?>
<!DOCTYPE svg PUBLIC "-//W3C//DTD SVG 1.1//EN" "http://www.w3.org/Graphics/SVG/1.1/DTD/svg11.dtd">
<svg width="100%" height="100%" viewBox="0 0 586 603" version="1.1" xmlns="http://www.w3.org/2000/svg" xmlns:xlink="http://www.w3.org/1999/xlink" xml:space="preserve" xmlns:serif="http://www.serif.com/" style="fill-rule:evenodd;clip-rule:evenodd;stroke-linejoin:round;stroke-miterlimit:2;">
    <g>
        <path fill="currentColor" d="M241.039,119.223C242.863,53.161 265.475,0.884 293.063,0.884C320.676,0.884 343.304,53.259 345.091,119.404C379.158,129.645 410.128,149.483 435.048,175.427C445.98,186.809 461.982,207.343 449.664,223.356C447.445,226.24 445.117,229.175 442.135,231.26C439.153,233.346 435.625,234.618 432.127,235.62C408.626,242.354 396.755,212.702 382.667,200.714C357.764,179.524 325.942,166.671 293.063,166.671L292.19,166.674C225.369,167.097 169.995,216.148 159.707,280.188C159.707,280.188 159.707,280.189 159.707,280.189C157.711,292.616 147.001,301.764 134.414,301.793C129.842,301.803 126.438,301.811 126.438,301.811L26.902,301.811C20.05,301.811 13.892,297.631 11.363,291.262C8.835,284.893 10.449,277.627 15.436,272.927C34.661,254.729 70.985,241.746 113.652,239.382C122.697,215.126 135.241,192.765 152.826,173.479C176.291,147.745 207.425,128.958 241.039,119.223Z"/>
        <path fill="currentColor" d="M345.191,484.49C343.367,550.552 320.754,602.829 293.167,602.829C265.554,602.829 242.925,550.454 241.138,484.309C207.072,474.068 176.102,454.23 151.182,428.286C140.249,416.904 124.248,396.37 136.566,380.357C138.784,377.473 141.113,374.538 144.095,372.453C147.077,370.367 150.604,369.095 154.102,368.093C177.604,361.359 189.474,391.011 203.563,402.999C228.465,424.189 260.287,437.042 293.167,437.042L294.04,437.039C360.861,436.616 416.235,387.565 426.522,323.525C426.522,323.525 426.522,323.524 426.522,323.524C428.518,311.097 439.229,301.949 451.815,301.92C456.387,301.91 459.791,301.902 459.791,301.902L559.327,301.902C566.179,301.902 572.338,306.082 574.866,312.451C577.394,318.82 575.78,326.086 570.793,330.786C551.568,348.984 515.245,361.967 472.578,364.331C463.533,388.588 450.988,410.948 433.403,430.234C409.939,455.968 378.805,474.755 345.191,484.49Z"/>
        <path fill="currentColor" d="M364.194,308.576C365.841,308.069 367.632,308.441 368.942,309.561C370.251,310.681 370.896,312.393 370.652,314.099C364.783,352.067 332.278,381.147 293.112,381.147C249.788,381.147 214.615,345.566 214.615,301.74C214.615,257.914 249.788,222.332 293.112,222.332C295.674,222.332 298.208,222.457 300.707,222.7C303.126,222.929 305.262,224.373 306.377,226.532C307.492,228.69 307.432,231.268 306.218,233.373C301.782,241.007 299.228,249.896 299.228,259.383C299.228,287.676 321.935,310.646 349.903,310.646C354.865,310.646 359.661,309.923 364.194,308.576Z"/>
    </g>
</svg>
